<svg width="133" height="35" viewBox="0 0 133 35" fill="none" xmlns="http://www.w3.org/2000/svg">
<path d="M0.220709 34.0288H6.98993L6.98993 9.20825L0.220703 11.2536L0.220709 34.0288Z" fill="#24282C"/>
<path d="M28.8213 10.9803C27.5785 9.94384 25.9209 9.44152 23.8445 9.47068C22.7236 9.47068 21.6699 9.62575 20.6863 9.93721C19.6859 10.2036 18.8158 10.5509 18.0732 10.9803C16.4829 11.9425 15.6731 12.4528 15.6423 12.5124L14.6713 9.20825L9.24609 10.8915L9.27972 34.0288H15.8006V16.4846C15.83 16.4409 16.4129 16.1374 17.5506 15.5741C18.6407 15.0559 19.9129 14.7815 21.3673 14.7523C22.4265 14.7523 23.1761 14.9008 23.6161 15.1963C23.979 15.5661 24.1611 16.1732 24.1611 17.0174V34.0274H30.682V16.6649C30.682 13.9558 30.0613 12.0605 28.8185 10.9803H28.8213Z" fill="#24282C"/>
<path d="M45.0822 19.6719L42.6507 18.8088C41.6584 18.4852 40.8401 18.1234 40.1959 17.726C39.4558 17.4024 39.0871 16.8932 39.0871 16.1998C39.0556 14.7999 40.2699 14.1145 42.7288 14.1434C43.85 14.1737 46.6803 14.1697 46.742 14.1987L48.9364 10.3003C48.0633 9.96872 47.5123 9.85689 47.0436 9.75689C45.8127 9.49376 44.3242 9.2372 42.5232 9.20825C41.3116 9.20825 40.1534 9.31088 39.0487 9.51744C37.8974 9.73848 36.8749 10.1358 35.9813 10.7095C35.0725 11.2252 34.353 11.9752 33.8239 12.9606C33.2332 13.9618 32.9385 15.1973 32.9385 16.6682C32.9385 17.6984 33.1084 18.6036 33.4497 19.3825C33.7759 20.1627 34.1967 20.8245 34.7148 21.3679C35.2329 21.8836 35.8099 22.3165 36.4473 22.6704C37.0531 23.0375 37.6603 23.3256 38.2675 23.5309L40.3111 24.215C41.2773 24.4795 42.086 24.811 42.7357 25.2084C43.3538 25.5754 43.6622 26.1359 43.6622 26.8859C43.6307 27.7253 43.3018 28.2989 42.674 28.6068C41.9832 28.9015 41.0951 29.0489 40.0054 29.0489C38.8705 29.0199 38.2469 28.9844 36.7036 28.6226C36.3952 28.5502 35.8278 28.37 35.5084 28.3002L33.2167 32.3592C33.6224 32.667 34.2461 33.0999 35.6742 33.4578C37.0668 33.8064 38.5868 33.9998 40.237 34.0288C41.4171 34.0288 42.5822 33.9406 43.7335 33.7656C44.8684 33.5893 45.8895 33.2446 46.7982 32.7315C47.7522 32.1894 48.5087 31.3974 49.068 30.3554C49.5984 29.3291 49.8616 27.9871 49.8616 26.3293C49.8314 24.3979 49.3585 22.9085 48.4388 21.8626C47.4753 20.8311 46.3569 20.1009 45.0836 19.6733L45.0822 19.6719Z" fill="#24282C"/>
<path d="M85.0648 11.5689C84.0897 10.657 83.0174 10.0399 81.8467 9.71616C80.676 9.37799 79.49 9.20825 78.2901 9.20825C77.0903 9.20825 75.8738 9.37668 74.6434 9.71485C74.058 9.89117 73.4949 10.1267 72.9553 10.4201C72.3699 10.7583 71.8151 11.1557 71.2893 11.611C70.2989 12.4781 69.4958 13.7268 68.8813 15.3584C68.2349 17.0045 67.9131 19.0915 67.9131 21.6192C67.9131 24.3679 68.289 26.5654 69.038 28.2102C69.7136 29.8721 70.5985 31.1208 71.6944 31.9576C72.8346 32.7814 74.0497 33.3393 75.3397 33.6327C76.6603 33.8972 77.9517 34.0288 79.2126 34.0288C80.2321 34.0288 81.0297 33.9814 81.9438 33.8248C82.808 33.6774 83.281 33.484 83.4794 33.3906L86.6961 27.7496C86.5352 27.8167 84.7735 28.2654 84.2312 28.4075C82.6734 28.8181 80.9964 29.0207 79.2098 29.0497C78.1292 29.0786 77.1 28.7615 76.1248 28.097C75.6588 27.743 75.2621 27.1957 74.9305 26.4575C74.5851 25.793 74.3826 24.8785 74.323 23.71H88.1498L88.1956 21.6297C88.3038 19.0704 88.0638 16.9664 87.4743 15.319C86.8598 13.686 86.0566 12.436 85.0662 11.5675L85.0648 11.5689ZM74.323 19.7467C74.3521 17.3638 74.6906 15.6821 75.3356 14.7045C75.9209 13.7716 76.9044 13.3057 78.286 13.3057C79.4872 13.2623 80.3805 13.6834 80.9659 14.5716C81.5513 15.4742 81.8592 17.1993 81.8897 19.7454L74.323 19.7467Z" fill="#24282C"/>
<path d="M6.98993 5.9689L6.98707 0.182617L0.220703 2.30485V8.08005L6.98993 5.9689Z" fill="#24282C"/>
<path d="M125.836 3.27546V11.2283C125.836 11.1996 125.427 10.8725 124.611 10.2473C123.795 9.68092 122.533 9.38269 120.827 9.35392C120.07 9.35392 119.143 9.45594 118.044 9.66C116.916 9.96608 115.809 10.5364 114.726 11.3696C113.657 12.1884 112.744 13.4154 111.988 15.0517C111.186 16.7326 110.785 18.9444 110.785 21.6913C110.785 24.4382 111.105 26.5049 111.743 28.1125C112.321 29.7632 113.07 31.0203 113.991 31.8809C114.896 32.7285 115.884 33.2989 116.952 33.5905C117.977 33.8822 118.963 34.0287 119.913 34.0287C120.923 34 121.835 33.8679 122.653 33.635C123.44 33.4009 124.106 33.1314 124.656 32.8253C125.784 32.1098 126.349 31.7227 126.349 31.6638L127.061 33.5919H132.221V1.31079L125.837 3.27546H125.836ZM126.522 27.8927C126.492 27.9215 126.083 28.1635 125.296 28.6174C124.478 29.0857 123.521 29.342 122.421 29.3852C121.114 29.4441 120.029 29.049 119.167 28.2001C118.78 27.6874 118.462 26.9117 118.21 25.8731C117.973 24.8489 117.853 23.4506 117.853 21.6809C117.853 19.9111 118.008 18.4605 118.321 17.4219C118.469 16.8804 118.632 16.4265 118.811 16.0602C118.989 15.7084 119.189 15.4088 119.413 15.1603C119.859 14.692 120.385 14.3781 120.994 14.2172C121.603 14.1296 122.227 14.0851 122.867 14.0851C123.906 14.1152 124.774 14.3127 125.473 14.6776C126.142 15.0583 126.49 15.2702 126.521 15.3146V27.8927H126.522Z" fill="#24282C"/>
<path d="M65.771 28.5416C64.6579 28.8399 63.7522 28.9891 63.0554 28.9891C62.6062 29.0184 62.2427 28.9291 61.9652 28.7214C61.6089 28.5123 61.4315 28.0874 61.4315 27.4468L61.4401 14.0605H64.3746L67.1403 9.30582H61.4315V1.31079L54.7727 3.31254V9.30449H51.4919L48.7334 14.0565L54.7798 14.0605L54.7713 27.5134C54.7713 28.9118 54.9873 30.0346 55.4223 30.8829C55.81 31.7753 56.3222 32.4452 56.9575 32.8914C57.6242 33.3522 58.3682 33.6425 59.1909 33.761C59.9821 33.9395 60.812 34.0287 61.6804 34.0287C62.5017 33.9994 63.26 33.9422 63.9568 33.8516C64.3531 33.7997 64.5635 33.7051 64.6407 33.6771L67.9129 28.0288C67.8714 28.0275 66.9857 28.2579 65.771 28.5416Z" fill="#24282C"/>
<path d="M106.026 10.6201C105.257 10.0464 104.349 9.65035 103.305 9.4293C102.26 9.28193 101.163 9.20825 100.017 9.20825C97.7241 9.2372 95.5078 9.59772 94.85 9.81219L91.7315 15.4765C92.9571 15.1542 93.9264 14.966 94.2553 14.9002C96.0421 14.5437 97.1872 14.3055 98.9283 14.2766C100.002 14.2476 100.837 14.3805 101.432 14.6779C101.997 15.02 102.28 15.7621 102.28 16.9055V18.6436H98.1873C97.316 18.6436 96.3803 18.7173 95.3789 18.8646C94.3627 19.0857 93.3974 19.4672 92.4832 20.0106C91.5825 20.5106 90.8495 21.2751 90.2843 22.3027C89.6601 23.3316 89.3486 24.6698 89.3486 26.3145C89.3486 27.9592 89.5742 29.2105 90.0239 30.1946C90.4441 31.2236 90.9958 32.0249 91.6778 32.5972C92.3597 33.1406 93.086 33.5156 93.8552 33.7209C94.5949 33.9261 95.3212 34.0288 96.0327 34.0288C97.0771 33.9998 97.9993 33.8525 98.7981 33.588C99.5821 33.3525 100.235 33.0669 100.757 32.7288C101.86 31.9499 102.411 31.5315 102.411 31.4722L103.086 33.588H108.528V16.9673C108.528 15.3213 108.317 13.9845 107.897 12.9555C107.447 11.9411 106.823 11.1622 106.024 10.6187L106.026 10.6201ZM102.282 28.1684C102.252 28.1986 101.868 28.3815 101.127 28.7197C100.388 29.1012 99.4505 29.3157 98.3188 29.3591C97.5067 29.3881 96.8677 29.1605 96.4032 28.6749C95.8662 28.1907 95.5977 27.3592 95.5977 26.1842C95.5977 24.6842 95.9816 23.6343 96.7509 23.0316C97.5201 22.458 98.7686 22.1711 100.496 22.1711L102.282 22.1264V28.1684Z" fill="#24282C"/>
</svg>
